<svg xmlns="http://www.w3.org/2000/svg" width="346" height="73" viewBox="0 0 346 73" fill="none"><path d="M70.369 43.5938C71.5345 44.0868 73.02 44.468 74.8361 44.7346C76.6521 44.9596 78.5336 45.0944 80.4895 45.1359C82.4455 45.1818 84.1662 45.2018 85.6577 45.2018H87.7521C88.6393 45.2018 89.3553 45.1818 89.9164 45.1359C91.1728 45.1359 92.24 45.0227 93.1272 44.802C94.0144 44.534 94.6604 44.1284 95.0832 43.5938C95.5476 43.0549 95.7828 42.2939 95.7828 41.3107C95.7828 40.1499 95.4359 39.3888 94.7348 39.0291C94.0352 38.6278 92.965 38.4229 91.5226 38.4229H83.2195C81.728 38.4229 80.2156 38.3555 78.6824 38.2222C77.1909 38.0889 75.8453 37.7751 74.6321 37.2821C73.4249 36.7432 72.4455 35.9148 71.6982 34.7998C70.9986 33.6375 70.6503 32.0452 70.6503 30.0344C70.6503 27.6195 71.0671 25.7377 71.9051 24.3963C72.7923 23.0075 73.9995 21.9799 75.5342 21.3063C77.1165 20.6327 78.9757 20.2114 81.1177 20.0322C83.3029 19.8516 85.7024 19.7642 88.3043 19.7642C89.8867 19.7642 91.5851 19.7843 93.4026 19.8316C95.2618 19.8774 96.9885 19.9448 98.5693 20.0322C100.199 20.1197 101.456 20.2787 102.337 20.4994C103.919 20.5869 105.132 20.9925 105.964 21.7076C106.847 22.4213 107.289 23.3157 107.289 24.3906V27.2125C106.916 26.8986 106.22 26.6521 105.195 26.4715C104.217 26.2465 103.053 26.0917 101.706 26.0043C100.402 25.9169 99.0977 25.851 97.7997 25.8037C96.5434 25.7578 95.427 25.7377 94.449 25.7377H88.1644C86.9081 25.7377 85.8408 25.851 84.9536 26.0717C84.1156 26.2523 83.4904 26.5862 83.0677 27.0792C82.6509 27.5722 82.4365 28.2673 82.4365 29.1616C82.4365 29.8753 82.5765 30.4615 82.8533 30.9087C83.1317 31.31 83.5753 31.6023 84.1781 31.7829C84.7825 31.9635 85.5729 32.0509 86.5508 32.0509H96.7414C98.9742 32.0509 100.932 32.2301 102.603 32.5898C104.276 32.9495 105.58 33.7521 106.509 35.0062C107.44 36.2602 107.904 38.1835 107.904 40.779C107.904 43.2412 107.392 45.2104 106.371 46.6852C105.345 48.1198 103.928 49.1675 102.112 49.8411C100.344 50.5147 98.2746 50.916 95.9019 51.0492C93.669 51.1825 91.5523 51.2499 89.5488 51.2499H83.1942C81.335 51.204 79.6083 51.1166 78.0275 50.9819C76.4943 50.8944 75.1412 50.7139 73.9772 50.4473C72.8116 50.1334 71.9036 49.7336 71.2576 49.2391C70.6533 48.7045 70.3496 48.0109 70.3496 47.1567V43.5995L70.366 43.5938H70.369ZM124.693 51.1854C122.18 51.1854 120.204 50.9389 118.761 50.4444C117.367 49.9055 116.389 49.0571 115.826 47.8948C115.271 46.6866 114.986 45.0313 114.986 42.9245V29.3594H111.984V24.1211H114.986V20.6972C114.986 19.5765 115.056 18.7495 115.196 18.2149C115.382 17.6804 115.729 17.3421 116.243 17.2074C116.755 17.0741 117.569 17.0068 118.685 17.0068H125.387V24.1254H132.157V29.3637H125.457V42.1219C125.457 43.9105 125.622 45.2119 125.948 46.0188C126.322 46.8256 127.271 47.2269 128.806 47.2269C129.223 47.2269 129.763 47.1811 130.415 47.0937C131.115 47.0062 131.601 46.9131 131.878 46.8256V50.5161C131.552 50.5619 130.74 50.6967 129.436 50.9174C128.179 51.0965 126.598 51.184 124.692 51.184L124.693 51.1854ZM151.225 51.2527C147.963 51.2527 145.336 51.1395 143.337 50.9188C141.338 50.7382 139.778 50.3584 138.66 49.778C137.591 49.1976 136.871 48.3692 136.497 47.2957C136.122 46.2208 135.936 44.8335 135.936 43.1323C135.936 40.8493 136.165 39.128 136.636 37.9614C137.102 36.7532 137.913 35.9263 139.078 35.4791C140.242 35.032 141.798 34.8055 143.755 34.8055C144.919 34.8055 146.246 34.827 147.736 34.8729C149.269 34.8729 150.76 34.8929 152.203 34.9388C153.694 34.9847 154.97 35.0721 156.04 35.2068C157.157 35.2942 157.926 35.3874 158.343 35.4748C158.343 34.086 158.203 32.9925 157.926 32.1842C157.693 31.3773 157.297 30.7754 156.74 30.3698C156.185 29.9226 155.436 29.6288 154.507 29.4956C153.577 29.3623 152.432 29.2949 151.086 29.2949C149.458 29.2949 147.828 29.315 146.203 29.3608C144.62 29.4067 143.062 29.4941 141.527 29.6288C140.036 29.7621 138.662 29.9212 137.407 30.0961V28.2143C137.407 27.0061 137.685 26.1118 138.245 25.5314C138.804 24.9509 139.57 24.5711 140.548 24.3906C141.616 24.1641 143.197 24.0108 145.293 23.9233C147.435 23.8359 149.738 23.79 152.201 23.79C155.323 23.79 157.925 23.9434 160.019 24.2573C162.161 24.5711 163.834 25.1315 165.043 25.9384C166.25 26.7453 167.116 27.9534 167.623 29.5615C168.136 31.1294 168.392 33.2319 168.392 35.8732V49.2334C167.649 49.907 165.786 50.4201 162.809 50.7755C159.875 51.0894 156.016 51.2427 151.225 51.2427V51.2527ZM151.155 47.0893C152.459 47.0893 153.548 47.0679 154.436 47.022C155.364 46.9346 156.155 46.8213 156.808 46.688C157.46 46.5548 157.972 46.3957 158.342 46.2208V38.7009C157.828 38.5676 157.108 38.4544 156.177 38.367C155.29 38.2795 154.388 38.2136 153.458 38.1663C152.527 38.1205 151.807 38.1004 151.293 38.1004C150.177 38.1004 149.269 38.1878 148.574 38.367C147.879 38.5476 147.367 38.9488 147.041 39.5751C146.762 40.2029 146.624 41.1631 146.624 42.4645C146.624 43.5852 146.741 44.4996 146.971 45.219C147.207 45.8926 147.645 46.3814 148.297 46.6938C148.947 46.9618 149.905 47.0951 151.161 47.0951L151.156 47.0893H151.155ZM190.393 51.3201C186.202 51.3201 182.831 50.9862 180.271 50.3126C177.759 49.5974 175.921 48.2975 174.757 46.4157C173.641 44.4938 173.08 41.7178 173.08 38.0889C173.08 34.1505 173.641 31.1495 174.757 29.0928C175.921 27.0319 177.761 25.6231 180.271 24.8621C182.831 24.101 186.202 23.7212 190.393 23.7212C191.6 23.7212 192.765 23.7872 193.882 23.9219C195.046 24.0093 196.442 24.1684 198.072 24.3891C199.002 24.4765 199.75 24.6815 200.305 24.9954C200.909 25.3092 201.353 25.8223 201.631 26.5375C201.91 27.2512 202.048 28.3261 202.048 29.7607C201.534 29.5801 200.744 29.4268 199.675 29.2935C198.648 29.1129 197.532 28.9796 196.325 28.8922C195.117 28.8048 194.043 28.7589 193.114 28.7589C190.741 28.7589 188.855 29.0269 187.46 29.5658C186.109 30.1047 185.137 30.999 184.526 32.2487C183.965 33.5027 183.688 35.224 183.688 37.4196C183.688 39.6138 183.965 41.2706 184.526 42.5232C185.129 43.7773 186.109 44.6716 187.46 45.2061C188.855 45.7465 190.741 46.013 193.114 46.013C194.183 46.013 195.299 45.9672 196.464 45.8797C197.672 45.7923 198.767 45.6791 199.745 45.5458C200.771 45.3652 201.534 45.1861 202.048 45.0055V47.6884C202.048 48.8077 201.514 49.6361 200.445 50.1707C199.419 50.6637 198.024 50.9776 196.255 51.1109C194.488 51.2441 192.53 51.3115 190.394 51.3115V51.3172L190.393 51.3201ZM207.049 50.9145L206.979 20.4994C206.979 19.158 207.188 18.2379 207.611 17.7449C208.074 17.2519 209.074 17.0039 210.613 17.0039H217.524V35.0004L226.944 26.0717C227.831 25.3107 228.712 24.7718 229.593 24.4622C230.524 24.1025 231.92 23.9276 233.784 23.9276C235.18 23.9276 236.435 23.9477 237.551 23.9936C238.715 24.0409 239.784 24.081 240.762 24.1268C240.533 24.2601 240.111 24.5539 239.507 25.0011C238.903 25.4024 238.272 25.8495 237.62 26.3425C236.966 26.7897 236.363 27.191 235.802 27.5507L227.075 34.7367L239.57 47.4949C240.269 48.1227 240.964 48.749 241.664 49.3767C242.364 49.9571 243.014 50.4717 243.618 50.9188C241.664 50.9647 239.712 50.9847 237.755 50.9847H232.518C230.89 50.9847 229.681 50.8042 228.891 50.4502C228.1 50.0904 227.308 49.5301 226.518 48.769L219.887 41.9886L217.514 42.9288V50.9174H207.046V50.9116L207.049 50.9145Z" fill="#0059E6"></path><path d="M285.196 35.6053C285.196 38.8747 284.802 41.5378 284.009 43.5946C283.266 45.6098 282.072 47.1521 280.445 48.2256C278.863 49.2991 276.836 50.0402 274.37 50.4415C271.9 50.8013 268.941 50.9761 265.499 50.9761H259.493C257.585 50.9761 255.793 50.956 254.114 50.9102H245.311V24.4514C245.311 22.8833 245.638 21.7682 246.289 21.0946C246.94 20.4209 248.15 20.0669 249.92 20.0196H253.835C255.279 19.9737 256.724 19.9522 258.166 19.9522H266.692C269.996 19.9981 272.813 20.246 275.146 20.6932C277.472 21.0946 279.388 21.8556 280.874 22.9765C282.367 24.0515 283.458 25.6181 284.158 27.6749C284.858 29.6901 285.205 32.3317 285.205 35.5967L285.196 35.6068V35.6053ZM256.761 45.3418H258.365C259.016 45.3418 259.69 45.3619 260.392 45.4077H264.375C266.007 45.4077 267.402 45.2744 268.569 45.0064C269.734 44.7384 270.665 44.2453 271.361 43.5301C272.062 42.8163 272.569 41.8073 272.895 40.5072C273.221 39.2072 273.382 37.5776 273.382 35.6025C273.382 32.7803 273.083 30.6576 272.472 29.2228C271.916 27.7881 270.959 26.8263 269.606 26.3333C268.301 25.7987 266.461 25.5263 264.086 25.5263H261.92C261.081 25.5263 260.247 25.5464 259.408 25.5923C258.568 25.5923 257.845 25.6123 257.242 25.6582C257.102 25.8847 256.986 26.1513 256.895 26.4652C256.803 26.7791 256.755 27.2262 256.755 27.8067V45.3318L256.761 45.3375V45.3418ZM305.894 51.3201C303.24 51.3201 300.887 51.1395 298.84 50.7798C296.791 50.42 295.069 49.7521 293.667 48.7645C292.32 47.777 291.292 46.3895 290.594 44.6008C289.892 42.7661 289.545 40.417 289.545 37.5475C289.545 34.6794 289.892 32.356 290.594 30.5673C291.294 28.7326 292.316 27.3237 293.667 26.3362C295.063 25.3486 296.791 24.6807 298.84 24.3209C300.888 23.9612 303.24 23.7863 305.894 23.7863C308.546 23.7863 310.947 23.9669 312.946 24.3209C314.953 24.6807 316.626 25.3486 317.979 26.3362C319.329 27.3237 320.354 28.7312 321.055 30.5673C321.755 32.356 322.103 34.6852 322.103 37.5475C322.103 40.4112 321.755 42.7661 321.055 44.6008C320.354 46.4354 319.306 47.8443 317.909 48.8319C316.562 49.7721 314.883 50.42 312.882 50.7798C310.877 51.1395 308.549 51.3201 305.897 51.3201H305.892H305.894ZM305.894 46.4153C307.199 46.4153 308.246 46.1889 309.037 45.7417C309.877 45.2486 310.502 44.3743 310.926 43.1245C311.342 41.8245 311.556 39.9683 311.556 37.5518C311.556 35.1367 311.349 33.3006 310.926 32.0465C310.509 30.7464 309.877 29.8764 309.037 29.4292C308.246 28.9362 307.199 28.6882 305.894 28.6882C304.686 28.6882 303.635 28.9347 302.749 29.4292C301.861 29.8764 301.188 30.7507 300.721 32.0465C300.304 33.3006 300.09 35.1367 300.09 37.5518C300.09 39.9683 300.3 41.8288 300.721 43.1245C301.188 44.3786 301.861 45.2529 302.749 45.7417C303.632 46.1889 304.68 46.4153 305.894 46.4153ZM338.538 51.1854C336.024 51.1854 334.046 50.9388 332.601 50.4444C331.205 49.904 330.226 49.0555 329.665 47.8945C329.103 46.6862 328.824 45.0308 328.824 42.9238V29.3576H325.818V24.1188H328.824V20.6947C328.824 19.5738 328.894 18.7468 329.034 18.2122C329.221 17.6776 329.569 17.3393 330.082 17.2046C330.596 17.0713 331.409 17.0039 332.526 17.0039H339.233V24.1246H346.009V29.3633H339.302V42.1226C339.302 43.9114 339.463 45.2128 339.789 46.0197C340.163 46.8267 341.117 47.228 342.655 47.228C343.073 47.228 343.613 47.1821 344.26 47.0947C344.962 47.0073 345.447 46.9141 345.724 46.8267V50.5174C345.398 50.5633 344.585 50.6981 343.28 50.9188C342.024 51.0994 340.442 51.1868 338.532 51.1868H338.538V51.1854Z" fill="#0059E6"></path><path d="M70.3521 66.6576C70.3521 65.8538 70.4428 65.1907 70.6242 64.6759C70.8056 64.1491 71.1103 63.7313 71.5415 63.433C71.9682 63.1348 72.5405 62.9229 73.2542 62.7927C73.9797 62.667 74.8717 62.6019 75.9332 62.6019C76.3866 62.6019 76.8089 62.6186 77.2028 62.6564C77.6087 62.6776 78.0354 62.7261 78.4725 62.7927C78.9467 62.8517 79.2575 62.9668 79.4061 63.1409C79.5548 63.315 79.6247 63.5481 79.6247 63.8463V64.7259C79.2991 64.6003 78.9155 64.4973 78.4725 64.4171C78.0458 64.3353 77.6132 64.2808 77.1865 64.243C76.7598 64.1991 76.3807 64.1718 76.0492 64.1718C75.3816 64.1718 74.8316 64.2324 74.4049 64.3459C73.9886 64.4595 73.6794 64.6987 73.4861 65.0514C73.2943 65.4102 73.1977 65.9476 73.1977 66.6743C73.1977 67.4025 73.2943 67.8854 73.4861 68.2442C73.6794 68.603 73.999 68.8407 74.4524 68.9663C74.9059 69.0905 75.5035 69.1556 76.2513 69.1556C76.5665 69.1556 76.9025 69.1389 77.2489 69.101C77.6117 69.0571 77.9848 68.9981 78.3699 68.927C78.7654 68.8558 79.1861 68.7695 79.6232 68.6666V69.4765C79.6232 69.7535 79.5429 69.9806 79.3883 70.1668C79.2292 70.3409 78.9081 70.4605 78.4219 70.5302C77.9893 70.5998 77.5626 70.6452 77.1359 70.6664C76.7197 70.6876 76.2826 70.6997 75.8276 70.6997C74.7557 70.6997 73.8592 70.6392 73.1486 70.5256C72.4498 70.4 71.8894 70.1895 71.4671 69.8852C71.0613 69.587 70.7728 69.1798 70.6034 68.6575C70.4324 68.1306 70.3477 67.457 70.3477 66.638V66.6607L70.3521 66.6576ZM84.6334 70.73C83.9881 70.73 83.4172 70.6861 82.9207 70.5938C82.4241 70.5014 82.0019 70.3273 81.6659 70.0775C81.3403 69.8217 81.0891 69.4689 80.9181 69.0072C80.7471 68.5348 80.6624 67.9323 80.6624 67.1935C80.6624 66.4548 80.7471 65.8583 80.9181 65.4011C81.0891 64.9288 81.3344 64.5654 81.6659 64.3156C82.0079 64.0598 82.4241 63.8918 82.9207 63.7994C83.4172 63.7071 83.9881 63.6632 84.6334 63.6632C85.2801 63.6632 85.8614 63.7071 86.346 63.7994C86.8322 63.8918 87.2381 64.0658 87.5681 64.3156C87.8982 64.5715 88.1435 64.9288 88.3144 65.4011C88.4854 65.8628 88.5701 66.4608 88.5701 67.1935C88.5701 67.9263 88.4854 68.5348 88.3144 69.0072C88.1435 69.4795 87.8937 69.8429 87.5518 70.0926C87.2217 70.3318 86.8158 70.4999 86.3297 70.5922C85.8435 70.6846 85.2786 70.7285 84.6319 70.7285L84.6334 70.73ZM84.6334 69.4704C84.9485 69.4704 85.2043 69.4114 85.396 69.2963C85.5997 69.1722 85.7543 68.9436 85.8554 68.6227C85.958 68.2911 86.01 67.8142 86.01 67.1905C86.01 66.5653 85.9625 66.099 85.8554 65.7735C85.7543 65.442 85.5997 65.2149 85.396 65.0998C85.2043 64.9757 84.9485 64.9106 84.6334 64.9106C84.3405 64.9106 84.0833 64.9757 83.8707 65.0998C83.6581 65.2149 83.4916 65.4359 83.3801 65.7735C83.279 66.0929 83.2255 66.5668 83.2255 67.1905C83.2255 67.8142 83.273 68.2866 83.3801 68.6227C83.4931 68.9436 83.6581 69.1722 83.8707 69.2963C84.0848 69.4114 84.3405 69.4704 84.6334 69.4704ZM90.5252 70.6271C90.0925 70.6271 89.8799 70.4045 89.8799 69.9534V64.1597C90.2219 64.0462 90.7288 63.9432 91.4053 63.8509C92.0832 63.7479 92.831 63.6934 93.6413 63.6934C94.511 63.6934 95.1934 63.7479 95.69 63.8509C96.1969 63.9432 96.5716 64.1113 96.8109 64.3505C97.0562 64.5791 97.2168 64.8939 97.2867 65.2845C97.367 65.6751 97.4041 66.1641 97.4041 66.7515V69.6672C97.4041 69.9231 97.3878 70.1229 97.3566 70.2698C97.3239 70.406 97.2346 70.5029 97.0845 70.5635C96.9462 70.6225 96.7321 70.6498 96.4393 70.6498L94.8975 70.6331V66.149C94.8975 65.769 94.7846 65.4965 94.5556 65.339C94.3311 65.177 94.0219 65.0998 93.6383 65.0998C93.5001 65.0998 93.3558 65.1165 93.1953 65.1543C93.0347 65.177 92.886 65.2149 92.7359 65.2573C92.6021 65.2906 92.4906 65.3436 92.3939 65.4147V70.6437H90.5103L90.5266 70.6271H90.5252ZM99.4647 70.6271C99.0321 70.6271 98.8195 70.4045 98.8195 69.9534V64.1597C99.1614 64.0462 99.6669 63.9432 100.345 63.8509C101.023 63.7479 101.771 63.6934 102.581 63.6934C103.451 63.6934 104.134 63.7479 104.631 63.8509C105.138 63.9432 105.511 64.1113 105.752 64.3505C105.997 64.5791 106.158 64.8939 106.228 65.2845C106.308 65.6751 106.345 66.1641 106.345 66.7515V69.6672C106.345 69.9231 106.329 70.1229 106.298 70.2698C106.266 70.406 106.176 70.5029 106.026 70.5635C105.887 70.6225 105.673 70.6498 105.38 70.6498L103.839 70.6331V66.149C103.839 65.769 103.726 65.4965 103.503 65.339C103.278 65.177 102.969 65.0998 102.585 65.0998C102.447 65.0998 102.303 65.1165 102.142 65.1543C101.983 65.177 101.833 65.2149 101.683 65.2573C101.545 65.2906 101.432 65.3436 101.341 65.4147V70.6437H99.4573L99.4677 70.6271H99.4647ZM111.505 70.73C110.716 70.73 110.065 70.6861 109.558 70.5938C109.051 70.4908 108.645 70.3167 108.352 70.0775C108.058 69.8383 107.851 69.4962 107.728 69.0617C107.604 68.6272 107.54 68.058 107.54 67.351C107.54 66.4548 107.664 65.7387 107.914 65.2119C108.159 64.685 108.592 64.299 109.2 64.0553C109.824 63.8161 110.677 63.6919 111.778 63.6919C112.637 63.6919 113.319 63.7843 113.828 63.969C114.335 64.1537 114.703 64.4413 114.932 64.8319C115.157 65.2225 115.274 65.7221 115.274 66.3306V67.6613H110.561C110.561 67.4221 110.609 67.2163 110.716 67.0588C110.829 66.8847 111.031 66.7984 111.324 66.7984H113.02L113.006 66.4336C113.006 65.9612 112.909 65.6146 112.717 65.3799C112.536 65.1407 112.188 65.0166 111.682 65.0166C111.266 65.0166 110.935 65.0862 110.7 65.2225C110.475 65.3466 110.315 65.5813 110.224 65.9128C110.144 66.2322 110.107 66.7 110.107 67.3086C110.107 67.8627 110.154 68.276 110.261 68.5515C110.374 68.8285 110.57 69.0193 110.853 69.1222C111.137 69.2146 111.535 69.257 112.054 69.257C112.247 69.257 112.509 69.2509 112.833 69.2403C113.159 69.2297 113.495 69.2191 113.831 69.207C114.183 69.1858 114.488 69.1692 114.749 69.1525C115.022 69.1313 115.192 69.1086 115.256 69.0829V69.3917C115.256 69.5552 115.23 69.7233 115.172 69.908C115.13 70.0821 115.027 70.2228 114.883 70.3364C114.681 70.4984 114.302 70.6028 113.746 70.6467C113.202 70.6906 112.46 70.7164 111.51 70.7164L111.504 70.727L111.505 70.73ZM120.455 70.73C119.437 70.73 118.621 70.6437 117.995 70.4696C117.387 70.2849 116.938 69.9534 116.655 69.4704C116.385 68.9769 116.25 68.2654 116.25 67.3313C116.25 66.3215 116.385 65.551 116.655 65.0181C116.939 64.4913 117.387 64.1279 117.995 63.9326C118.621 63.7373 119.437 63.6389 120.455 63.6389C120.75 63.6389 121.031 63.6556 121.304 63.6934C121.588 63.7146 121.929 63.7585 122.323 63.813C122.547 63.8357 122.729 63.8887 122.868 63.9705C123.017 64.0522 123.124 64.1824 123.189 64.3671C123.258 64.5518 123.291 64.8289 123.291 65.1922C123.169 65.1483 122.977 65.1059 122.715 65.0726C122.468 65.0287 122.198 64.9908 121.903 64.9697C121.609 64.9469 121.349 64.9363 121.124 64.9363C120.549 64.9363 120.088 65.0075 119.752 65.1422C119.427 65.2785 119.187 65.5116 119.043 65.8326C118.903 66.1535 118.841 66.5986 118.841 67.1633C118.841 67.728 118.911 68.1518 119.043 68.4713C119.187 68.7922 119.427 69.0254 119.752 69.1616C120.094 69.2979 120.548 69.369 121.124 69.369C121.386 69.369 121.657 69.3584 121.941 69.3357C122.235 69.313 122.501 69.2812 122.736 69.2494C122.981 69.2055 123.169 69.1571 123.295 69.1132V69.8035C123.295 70.0911 123.169 70.3031 122.907 70.4439C122.66 70.5695 122.32 70.6513 121.889 70.6831C121.46 70.7164 120.986 70.7376 120.463 70.7376L120.458 70.7315L120.455 70.73ZM127.165 70.6921C126.557 70.6921 126.077 70.627 125.724 70.5014C125.382 70.3667 125.146 70.1426 125.014 69.8444C124.88 69.5355 124.81 69.1056 124.81 68.5682V65.0832H124.079V63.7373H124.81V62.8578C124.81 62.5701 124.826 62.3582 124.858 62.2174C124.905 62.0811 124.987 61.9949 125.115 61.957C125.241 61.9192 125.434 61.9025 125.706 61.9025H127.334V63.7328H128.979V65.0786H127.351V68.3577C127.351 68.8195 127.388 69.151 127.467 69.3569C127.557 69.5628 127.788 69.6657 128.161 69.6657C128.264 69.6657 128.391 69.6551 128.551 69.6324C128.721 69.6112 128.839 69.5885 128.909 69.5628V70.5135C128.829 70.5241 128.631 70.5574 128.316 70.6164C128.012 70.6603 127.627 70.6861 127.163 70.6861V70.6921H127.165ZM132.047 70.6921C131.291 70.6921 130.767 70.5392 130.474 70.241C130.18 69.9428 130.031 69.4538 130.031 68.7756L130.048 63.7373H132.572V68.6726C132.572 69.0314 132.62 69.2873 132.727 69.4492C132.838 69.6006 133.021 69.6718 133.272 69.6718C133.421 69.6718 133.543 69.6612 133.645 69.6385C133.747 69.6173 133.81 69.6006 133.831 69.584V70.5347C133.79 70.5453 133.705 70.562 133.576 70.5892C133.454 70.6119 133.272 70.6331 133.03 70.6604C132.791 70.6876 132.465 70.6937 132.049 70.6937L132.047 70.6921ZM131.338 62.9168C130.943 62.9168 130.66 62.8623 130.489 62.7594C130.318 62.6564 130.233 62.4657 130.233 62.1886C130.233 61.9116 130.318 61.7224 130.489 61.6194C130.671 61.5059 130.965 61.4453 131.371 61.4453C131.754 61.4559 132.028 61.5165 132.187 61.6194C132.358 61.7224 132.432 61.9131 132.422 62.1886C132.422 62.4657 132.342 62.6564 132.187 62.7594C132.037 62.8623 131.76 62.9168 131.338 62.9168ZM135.379 70.6271C134.952 70.6271 134.734 70.4045 134.734 69.9534V64.1597C135.074 64.0462 135.583 63.9432 136.259 63.8509C136.937 63.7479 137.685 63.6934 138.495 63.6934C139.365 63.6934 140.047 63.7479 140.545 63.8509C141.052 63.9432 141.424 64.1113 141.665 64.3505C141.916 64.5791 142.071 64.8939 142.14 65.2845C142.221 65.6751 142.258 66.1641 142.258 66.7515V69.6672C142.258 69.9231 142.243 70.1229 142.206 70.2698C142.173 70.406 142.082 70.5029 141.934 70.5635C141.801 70.6225 141.581 70.6498 141.289 70.6498L139.747 70.6331V66.149C139.747 65.769 139.634 65.4965 139.405 65.339C139.182 65.177 138.873 65.0998 138.488 65.0998C138.348 65.0998 138.204 65.1165 138.043 65.1543C137.884 65.177 137.735 65.2149 137.585 65.2573C137.453 65.2906 137.34 65.3436 137.245 65.4147V70.6437H135.36L135.382 70.6271H135.379ZM146.997 72.6965C146.523 72.6965 146.097 72.6859 145.712 72.6632C145.338 72.642 145.023 72.5875 144.762 72.5058C144.5 72.4361 144.299 72.3317 144.153 72.197C144.02 72.0713 143.95 71.8987 143.95 71.6807V71.1645C144.063 71.2235 144.266 71.278 144.558 71.3386C144.863 71.4082 145.199 71.4582 145.557 71.496C145.92 71.5399 146.239 71.5657 146.523 71.5657C147.179 71.5657 147.671 71.4733 147.997 71.2886C148.327 71.1145 148.539 70.8314 148.642 70.4408C148.743 70.0397 148.764 69.5295 148.712 68.9042L149 68.9375C148.877 69.2857 148.712 69.5507 148.509 69.746C148.316 69.9413 148.05 70.0821 147.714 70.1744C147.372 70.2562 146.945 70.294 146.428 70.294C145.717 70.294 145.141 70.2077 144.698 70.0336C144.265 69.8489 143.95 69.534 143.748 69.0829C143.554 68.6317 143.458 67.9974 143.458 67.1663C143.458 66.4548 143.528 65.8734 143.661 65.4238C143.811 64.9621 144.046 64.6093 144.372 64.3535C144.702 64.0976 145.135 63.9296 145.679 63.8373C146.233 63.7449 146.922 63.701 147.75 63.701C147.997 63.701 148.306 63.7116 148.669 63.7343C149.031 63.7449 149.396 63.7661 149.752 63.8039C150.126 63.8267 150.451 63.8479 150.735 63.8751C151.016 63.8963 151.203 63.913 151.296 63.9296C151.285 63.9614 151.273 64.0431 151.263 64.1673V69.2388C151.263 70.1729 151.108 70.8844 150.805 71.3779C150.511 71.8715 150.053 72.2136 149.433 72.3938C148.808 72.589 148.003 72.6875 147.009 72.6875L146.999 72.6935L146.997 72.6965ZM147.286 68.8694C147.533 68.8694 147.768 68.8361 147.98 68.7665C148.205 68.6847 148.386 68.5439 148.526 68.3381C148.666 68.1322 148.734 67.8385 148.744 67.4585V65.1452C148.655 65.1347 148.478 65.1241 148.217 65.1135C147.955 65.0908 147.677 65.0802 147.383 65.0802C147.032 65.0802 146.758 65.1347 146.551 65.2376C146.358 65.33 146.215 65.5146 146.123 65.7917C146.043 66.0687 146.006 66.4699 146.006 66.9968C146.006 67.5236 146.049 67.893 146.146 68.1685C146.236 68.4455 146.37 68.6363 146.551 68.7392C146.743 68.8316 146.984 68.8755 147.281 68.8755L147.286 68.8694ZM163.623 70.6604H158.943C158.426 70.6604 157.983 70.6498 157.618 70.6271V63.4875C157.618 63.156 157.688 62.9395 157.822 62.8472C157.972 62.7442 158.169 62.6897 158.415 62.6897H159.652C160.006 62.6791 160.305 62.6731 160.549 62.6731C160.796 62.6625 161.035 62.6564 161.259 62.6564H161.991C162.305 62.6564 162.651 62.6625 163.026 62.6731H164.095C164.435 62.6731 164.676 62.6791 164.825 62.6897C165.444 62.7321 165.913 62.9062 166.234 63.206C166.554 63.5042 166.708 63.9765 166.708 64.623C166.708 65.0847 166.629 65.442 166.475 65.7084C166.325 65.9643 166.139 66.1429 165.914 66.2625C165.69 66.3654 165.455 66.4245 165.22 66.4366C165.513 66.4366 165.77 66.4639 165.983 66.5229C166.206 66.5819 166.393 66.6803 166.543 66.8166C166.692 66.9422 166.803 67.1315 166.884 67.3858C166.964 67.6417 167.001 67.9566 167.001 68.3365C167.001 68.8528 166.931 69.2706 166.799 69.5794C166.677 69.8777 166.478 70.1063 166.206 70.2698C165.935 70.4212 165.589 70.5256 165.156 70.5786C164.728 70.6376 164.216 70.6649 163.629 70.6649L163.623 70.6588V70.6604ZM162.727 69.313C162.951 69.313 163.155 69.3069 163.335 69.2963C163.518 69.2857 163.671 69.2524 163.794 69.1934C163.927 69.1238 164.028 69.0132 164.098 68.8679C164.178 68.7044 164.215 68.4879 164.215 68.2109C164.215 67.8203 164.135 67.5493 163.979 67.4025C163.82 67.2511 163.494 67.1799 162.997 67.1799H160.638C160.424 67.1799 160.287 67.077 160.232 66.8711C160.189 66.6546 160.162 66.3382 160.162 65.9204H162.911C163.104 65.9204 163.274 65.8977 163.418 65.8492C163.579 65.8068 163.696 65.7084 163.776 65.557C163.867 65.3935 163.916 65.1543 163.916 64.8349C163.916 64.514 163.852 64.2702 163.729 64.1128C163.607 63.9508 163.399 63.863 163.121 63.8524C162.972 63.8418 162.807 63.8357 162.614 63.8357H160.868C160.73 63.8357 160.617 63.8736 160.528 63.9553C160.448 64.0371 160.411 64.1567 160.411 64.3202V69.3206H162.731L162.725 69.3145L162.727 69.313ZM172.196 70.73C171.406 70.73 170.755 70.6861 170.244 70.5938C169.735 70.4908 169.335 70.3167 169.041 70.0775C168.748 69.8383 168.54 69.4962 168.412 69.0617C168.289 68.6272 168.225 68.058 168.225 67.351C168.225 66.4548 168.347 65.7387 168.598 65.2119C168.849 64.685 169.276 64.299 169.884 64.0553C170.504 63.8161 171.363 63.6919 172.46 63.6919C173.32 63.6919 174.002 63.7843 174.51 63.969C175.017 64.1537 175.386 64.4413 175.615 64.8319C175.839 65.2225 175.951 65.7221 175.951 66.3306V67.6613H171.238C171.238 67.4221 171.286 67.2163 171.393 67.0588C171.506 66.8847 171.709 66.7984 172.001 66.7984H173.699L173.682 66.4336C173.682 65.9612 173.586 65.6146 173.394 65.3799C173.211 65.1407 172.865 65.0166 172.358 65.0166C171.941 65.0166 171.61 65.0862 171.376 65.2225C171.152 65.3466 170.991 65.5813 170.901 65.9128C170.82 66.2322 170.783 66.7 170.783 67.3086C170.783 67.8627 170.831 68.276 170.938 68.5515C171.051 68.8285 171.247 69.0193 171.531 69.1222C171.813 69.2146 172.213 69.257 172.737 69.257C172.929 69.257 173.19 69.2509 173.516 69.2403C173.846 69.2297 174.177 69.2191 174.519 69.207C174.87 69.1858 175.175 69.1692 175.437 69.1525C175.709 69.1313 175.875 69.1086 175.945 69.0829V69.3917C175.945 69.5552 175.918 69.7233 175.86 69.908C175.817 70.0821 175.716 70.2228 175.572 70.3364C175.37 70.4984 174.989 70.6028 174.435 70.6467C173.889 70.6906 173.147 70.7164 172.199 70.7164L172.193 70.727L172.196 70.73ZM179.839 70.6921C179.231 70.6921 178.75 70.627 178.398 70.5014C178.062 70.3667 177.821 70.1426 177.687 69.8444C177.549 69.5355 177.484 69.1056 177.484 68.5682V65.0832H176.754V63.7373H177.484V62.8578C177.484 62.5701 177.502 62.3582 177.539 62.2174C177.58 62.0811 177.668 61.9949 177.795 61.957C177.918 61.9237 178.114 61.9025 178.388 61.9025H180.016V63.7328H181.658V65.0786H180.031V68.3577C180.031 68.8195 180.068 69.151 180.148 69.3569C180.239 69.5628 180.469 69.6657 180.842 69.6657C180.945 69.6657 181.071 69.6551 181.232 69.6324C181.403 69.6112 181.52 69.5885 181.59 69.5628V70.5135C181.51 70.5241 181.311 70.5574 180.997 70.6164C180.694 70.6603 180.309 70.6861 179.845 70.6861L179.839 70.6921ZM185.433 70.6921C184.825 70.6921 184.345 70.627 183.991 70.5014C183.651 70.3667 183.414 70.1426 183.282 69.8444C183.142 69.5355 183.078 69.1056 183.078 68.5682V65.0832H182.347V63.7373H183.078V62.8578C183.078 62.5701 183.095 62.3582 183.133 62.2174C183.175 62.0811 183.26 61.9949 183.389 61.957C183.511 61.9237 183.71 61.9025 183.981 61.9025H185.61V63.7328H187.254V65.0786H185.626V68.3577C185.626 68.8195 185.664 69.151 185.744 69.3569C185.833 69.5628 186.065 69.6657 186.438 69.6657C186.539 69.6657 186.667 69.6551 186.826 69.6324C186.999 69.6112 187.115 69.5885 187.185 69.5628V70.5135C187.106 70.5241 186.907 70.5574 186.593 70.6164C186.288 70.6603 185.904 70.6861 185.439 70.6861L185.435 70.6921H185.433ZM192.036 70.73C191.246 70.73 190.594 70.6861 190.088 70.5938C189.581 70.4908 189.175 70.3167 188.881 70.0775C188.588 69.8383 188.38 69.4962 188.256 69.0617C188.135 68.6272 188.069 68.058 188.069 67.351C188.069 66.4548 188.192 65.7387 188.444 65.2119C188.689 64.685 189.122 64.299 189.73 64.0553C190.35 63.8161 191.209 63.6919 192.309 63.6919C193.168 63.6919 193.851 63.7843 194.358 63.969C194.865 64.1537 195.233 64.4413 195.462 64.8319C195.687 65.2225 195.804 65.7221 195.804 66.3306V67.6613H191.092C191.092 67.4221 191.144 67.2163 191.246 67.0588C191.358 66.8847 191.56 66.7984 191.854 66.7984H193.552L193.536 66.4336C193.536 65.9612 193.439 65.6146 193.247 65.3799C193.066 65.1407 192.719 65.0166 192.213 65.0166C191.796 65.0166 191.465 65.0862 191.23 65.2225C191.005 65.3466 190.845 65.5813 190.754 65.9128C190.674 66.2322 190.637 66.7 190.637 67.3086C190.637 67.8627 190.689 68.276 190.791 68.5515C190.903 68.8285 191.102 69.0193 191.383 69.1222C191.667 69.2146 192.068 69.257 192.584 69.257C192.776 69.257 193.039 69.2509 193.363 69.2403C193.689 69.2297 194.025 69.2191 194.361 69.207C194.713 69.1858 195.018 69.1692 195.28 69.1525C195.552 69.1313 195.723 69.1086 195.788 69.0829V69.3917C195.788 69.5552 195.76 69.7233 195.702 69.908C195.66 70.0821 195.564 70.2228 195.413 70.3364C195.21 70.4984 194.832 70.6028 194.276 70.6467C193.732 70.6906 192.99 70.7164 192.04 70.7164L192.036 70.727V70.73ZM199.539 70.6271H197.709C197.464 70.6271 197.282 70.562 197.165 70.4363C197.052 70.3122 196.992 70.0563 196.992 69.6763V64.0886C197.309 64.0068 197.767 63.9205 198.364 63.8282C198.973 63.7358 199.662 63.6919 200.415 63.6919C201.165 63.6919 201.829 63.7358 202.276 63.8282C202.741 63.9205 203.077 64.0613 203.297 64.2566C203.51 64.4413 203.648 64.6805 203.702 64.9787C203.772 65.2664 203.804 65.6191 203.804 66.0324H201.381V65.7932C201.381 65.5162 201.329 65.3163 201.226 65.1907C201.137 65.0665 201.024 64.9848 200.886 64.9515C200.746 64.9197 200.609 64.897 200.465 64.897C200.241 64.897 200.042 64.9197 199.872 64.9681C199.713 65.012 199.6 65.0817 199.53 65.174V70.6255H199.54L199.539 70.6271ZM209.852 70.6271V63.7419C209.852 63.4754 209.861 63.2695 209.883 63.1227C209.916 62.9713 209.996 62.8623 210.118 62.7972C210.24 62.7261 210.459 62.6943 210.764 62.6943H218.613V64.1764H212.646V65.8326H218.074V67.2995H212.646V70.6271H209.851H209.852ZM223.53 70.73C222.883 70.73 222.314 70.6861 221.817 70.5938C221.322 70.5014 220.898 70.3273 220.562 70.0775C220.237 69.8217 219.987 69.4689 219.816 69.0072C219.644 68.5348 219.559 67.9323 219.559 67.1935C219.559 66.4548 219.644 65.8583 219.816 65.4011C219.987 64.9288 220.232 64.5654 220.562 64.3156C220.904 64.0598 221.322 63.8918 221.817 63.7994C222.315 63.7071 222.885 63.6632 223.53 63.6632C224.175 63.6632 224.758 63.7071 225.244 63.7994C225.729 63.8918 226.135 64.0658 226.466 64.3156C226.796 64.5715 227.041 64.9288 227.212 65.4011C227.383 65.8628 227.47 66.4608 227.47 67.1935C227.47 67.9263 227.385 68.5348 227.212 69.0072C227.041 69.4795 226.792 69.8429 226.448 70.0926C226.118 70.3318 225.712 70.4999 225.226 70.5922C224.742 70.6846 224.175 70.7285 223.528 70.7285L223.53 70.73ZM223.53 69.4704C223.845 69.4704 224.101 69.4114 224.293 69.2963C224.496 69.1722 224.651 68.9436 224.75 68.6227C224.853 68.2911 224.905 67.8142 224.905 67.1905C224.905 66.5653 224.857 66.099 224.75 65.7735C224.649 65.442 224.495 65.2149 224.293 65.0998C224.101 64.9757 223.845 64.9106 223.53 64.9106C223.237 64.9106 222.98 64.9757 222.766 65.0998C222.553 65.2149 222.388 65.4359 222.275 65.7735C222.174 66.0929 222.12 66.5668 222.12 67.1905C222.12 67.8142 222.176 68.2866 222.275 68.6227C222.388 68.9436 222.553 69.1722 222.766 69.2963C222.98 69.4114 223.237 69.4704 223.53 69.4704ZM231.316 70.6271H229.486C229.234 70.6271 229.053 70.562 228.941 70.4363C228.828 70.3122 228.771 70.0563 228.771 69.6763V64.0886C229.084 64.0068 229.544 63.9205 230.141 63.8282C230.749 63.7358 231.439 63.6919 232.193 63.6919C232.944 63.6919 233.607 63.7358 234.054 63.8282C234.52 63.9205 234.856 64.0613 235.074 64.2566C235.287 64.4413 235.426 64.6805 235.479 64.9787C235.548 65.2664 235.581 65.6191 235.581 66.0324H233.158V65.7932C233.158 65.5162 233.11 65.3163 233.003 65.1907C232.914 65.0665 232.801 64.9848 232.663 64.9515C232.53 64.9197 232.386 64.897 232.242 64.897C232.017 64.897 231.818 64.9197 231.649 64.9681C231.49 65.012 231.377 65.0817 231.308 65.174V70.6255H231.317L231.316 70.6271ZM247.54 70.6604H242.86C242.341 70.6604 241.898 70.6498 241.535 70.6271V63.4875C241.535 63.156 241.605 62.9395 241.739 62.8472C241.888 62.7442 242.085 62.6897 242.331 62.6897H243.569C243.921 62.6791 244.22 62.6731 244.466 62.6731C244.717 62.6625 244.952 62.6564 245.175 62.6564H245.906C246.223 62.6564 246.569 62.6625 246.942 62.6731H248.01C248.352 62.6731 248.593 62.6791 248.741 62.6897C249.361 62.7321 249.83 62.9062 250.151 63.206C250.466 63.5042 250.626 63.9765 250.626 64.623C250.626 65.0847 250.546 65.442 250.387 65.7084C250.237 65.9643 250.056 66.1429 249.827 66.2625C249.602 66.3654 249.369 66.4245 249.132 66.4366C249.427 66.4366 249.682 66.4639 249.895 66.5229C250.12 66.5819 250.305 66.6803 250.456 66.8166C250.604 66.9422 250.717 67.1315 250.796 67.3858C250.876 67.6417 250.913 67.9566 250.913 68.3365C250.913 68.8528 250.844 69.2706 250.71 69.5794C250.588 69.8777 250.39 70.1063 250.118 70.2698C249.846 70.4212 249.498 70.5256 249.067 70.5786C248.634 70.6376 248.127 70.6649 247.54 70.6649V70.6588V70.6604ZM246.644 69.313C246.868 69.313 247.072 69.3069 247.252 69.2963C247.433 69.2857 247.588 69.2524 247.71 69.1934C247.849 69.1238 247.946 69.0132 248.016 68.8679C248.095 68.7044 248.133 68.4879 248.133 68.2109C248.133 67.8203 248.053 67.5493 247.898 67.4025C247.739 67.2511 247.412 67.1799 246.916 67.1799H244.556C244.342 67.1799 244.204 67.077 244.15 66.8711C244.103 66.6546 244.081 66.3382 244.081 65.9204H246.829C247.021 65.9204 247.192 65.8977 247.336 65.8492C247.496 65.8068 247.613 65.7084 247.695 65.557C247.785 65.3935 247.827 65.1543 247.827 64.8349C247.827 64.514 247.763 64.2702 247.641 64.1128C247.518 63.9508 247.314 63.863 247.033 63.8524C246.883 63.8418 246.716 63.8357 246.525 63.8357H244.779C244.641 63.8357 244.528 63.8736 244.439 63.9553C244.359 64.0371 244.321 64.1567 244.321 64.3202V69.3206H246.642V69.3145L246.644 69.313ZM256.112 70.73C255.323 70.73 254.67 70.6861 254.165 70.5938C253.656 70.4908 253.252 70.3167 252.958 70.0775C252.663 69.8383 252.457 69.4962 252.333 69.0617C252.211 68.6272 252.146 68.058 252.146 67.351C252.146 66.4548 252.268 65.7387 252.519 65.2119C252.77 64.685 253.197 64.299 253.805 64.0553C254.429 63.8161 255.284 63.6919 256.382 63.6919C257.241 63.6919 257.923 63.7843 258.432 63.969C258.939 64.1537 259.307 64.4413 259.536 64.8319C259.761 65.2225 259.878 65.7221 259.878 66.3306V67.6613H255.165C255.165 67.4221 255.213 67.2163 255.32 67.0588C255.432 66.8847 255.634 66.7984 255.928 66.7984H257.624L257.608 66.4336C257.608 65.9612 257.511 65.6146 257.32 65.3799C257.138 65.1407 256.796 65.0166 256.283 65.0166C255.869 65.0166 255.537 65.0862 255.302 65.2225C255.079 65.3466 254.917 65.5813 254.828 65.9128C254.748 66.2322 254.71 66.7 254.71 67.3086C254.71 67.8627 254.758 68.276 254.865 68.5515C254.977 68.8285 255.176 69.0193 255.457 69.1222C255.741 69.2146 256.139 69.257 256.663 69.257C256.854 69.257 257.116 69.2509 257.442 69.2403C257.769 69.2297 258.105 69.2191 258.441 69.207C258.791 69.1858 259.098 69.1692 259.359 69.1525C259.63 69.1313 259.796 69.1086 259.866 69.0829V69.3917C259.866 69.5552 259.84 69.7233 259.782 69.908C259.738 70.0821 259.637 70.2228 259.493 70.3364C259.291 70.4984 258.91 70.6028 258.356 70.6467C257.81 70.6906 257.068 70.7164 256.12 70.7164L256.109 70.727L256.112 70.73ZM263.756 70.6921C263.147 70.6921 262.667 70.627 262.313 70.5014C261.973 70.3667 261.738 70.1426 261.604 69.8444C261.465 69.5355 261.402 69.1056 261.402 68.5682V65.0832H260.671V63.7373H261.402V62.8578C261.402 62.5701 261.417 62.3582 261.45 62.2174C261.493 62.0811 261.578 61.9949 261.705 61.957C261.829 61.9237 262.027 61.9025 262.299 61.9025H263.925V63.7328H265.569V65.0786H263.94V68.3577C263.94 68.8195 263.979 69.151 264.057 69.3569C264.148 69.5628 264.378 69.6657 264.752 69.6657C264.854 69.6657 264.981 69.6551 265.143 69.6324C265.314 69.6112 265.431 69.5885 265.501 69.5628V70.5135C265.421 70.5241 265.223 70.5574 264.908 70.6164C264.604 70.6603 264.219 70.6861 263.756 70.6861V70.6921ZM269.354 70.6921C268.746 70.6921 268.266 70.627 267.912 70.5014C267.572 70.3667 267.336 70.1426 267.203 69.8444C267.063 69.5355 267 69.1056 267 68.5682V65.0832H266.268V63.7373H267V62.8578C267 62.5701 267.016 62.3582 267.047 62.2174C267.09 62.0811 267.176 61.9949 267.304 61.957C267.428 61.9237 267.624 61.9025 267.896 61.9025H269.524V63.7328H271.168V65.0786H269.54V68.3577C269.54 68.8195 269.582 69.151 269.656 69.3569C269.747 69.5628 269.976 69.6657 270.351 69.6657C270.453 69.6657 270.581 69.6551 270.742 69.6324C270.913 69.6112 271.03 69.5885 271.1 69.5628V70.5135C271.02 70.5241 270.822 70.5574 270.507 70.6164C270.203 70.6603 269.82 70.6861 269.354 70.6861V70.6921ZM275.951 70.73C275.162 70.73 274.51 70.6861 274.005 70.5938C273.496 70.4908 273.091 70.3167 272.804 70.0775C272.511 69.8383 272.301 69.4962 272.175 69.0617C272.051 68.6272 271.987 68.058 271.987 67.351C271.987 66.4548 272.109 65.7387 272.361 65.2119C272.612 64.685 273.039 64.299 273.648 64.0553C274.265 63.8161 275.126 63.6919 276.225 63.6919C277.084 63.6919 277.766 63.7843 278.275 63.969C278.782 64.1537 279.15 64.4413 279.379 64.8319C279.604 65.2225 279.721 65.7221 279.721 66.3306V67.6613H275.008C275.008 67.4221 275.06 67.2163 275.162 67.0588C275.275 66.8847 275.478 66.7984 275.77 66.7984H277.467L277.451 66.4336C277.451 65.9612 277.354 65.6146 277.163 65.3799C276.981 65.1407 276.635 65.0166 276.126 65.0166C275.71 65.0166 275.38 65.0862 275.145 65.2225C274.921 65.3466 274.762 65.5813 274.669 65.9128C274.591 66.2322 274.553 66.7 274.553 67.3086C274.553 67.8627 274.605 68.276 274.708 68.5515C274.82 68.8285 275.016 69.0193 275.3 69.1222C275.584 69.2146 275.982 69.257 276.506 69.257C276.697 69.257 276.96 69.2509 277.285 69.2403C277.616 69.2297 277.946 69.2191 278.284 69.207C278.634 69.1858 278.939 69.1692 279.201 69.1525C279.473 69.1313 279.644 69.1086 279.709 69.0829V69.3917C279.709 69.5552 279.681 69.7233 279.625 69.908C279.577 70.0821 279.479 70.2228 279.336 70.3364C279.133 70.4984 278.755 70.6028 278.199 70.6467C277.655 70.6906 276.913 70.7164 275.963 70.7164L275.952 70.727L275.951 70.73ZM283.456 70.6271H281.626C281.379 70.6271 281.199 70.562 281.08 70.4363C280.969 70.3122 280.909 70.0563 280.909 69.6763V64.0886C281.224 64.0068 281.684 63.9205 282.281 63.8282C282.889 63.7358 283.578 63.6919 284.33 63.6919C285.082 63.6919 285.744 63.7358 286.193 63.8282C286.658 63.9205 286.994 64.0613 287.207 64.2566C287.421 64.4413 287.559 64.6805 287.613 64.9787C287.681 65.2664 287.714 65.6191 287.714 66.0324H285.29V65.7932C285.29 65.5162 285.243 65.3163 285.137 65.1907C285.047 65.0665 284.934 64.9848 284.795 64.9515C284.662 64.9197 284.517 64.897 284.375 64.897C284.15 64.897 283.952 64.9197 283.781 64.9681C283.622 65.012 283.509 65.0817 283.441 65.174V70.6255H283.456V70.6271ZM298.33 70.7466C297.428 70.7466 296.659 70.6816 296.024 70.5559C295.394 70.4303 294.871 70.2198 294.466 69.9155C294.071 69.6052 293.778 69.1873 293.585 68.656C293.403 68.1291 293.313 67.4615 293.313 66.6531C293.313 65.8432 293.409 65.1543 293.601 64.6336C293.793 64.1067 294.092 63.6889 294.498 63.3907C294.914 63.0818 295.442 62.8638 296.072 62.7336C296.717 62.6095 297.486 62.5444 298.378 62.5444C299.268 62.5444 300.033 62.6095 300.667 62.7336C301.302 62.8593 301.815 63.0818 302.209 63.3907C302.615 63.6889 302.909 64.1022 303.091 64.6336C303.282 65.1604 303.379 65.8341 303.379 66.6531C303.379 67.4721 303.282 68.1412 303.091 68.6726C302.899 69.1995 302.6 69.6233 302.194 69.9322C301.788 70.2304 301.261 70.4424 300.62 70.5726C299.985 70.6861 299.221 70.7466 298.33 70.7466ZM298.347 69.2797C298.72 69.2797 299.041 69.2464 299.313 69.1767C299.594 69.095 299.82 68.9587 299.989 68.765C300.172 68.5682 300.299 68.3032 300.38 67.9717C300.471 67.6235 300.513 67.1905 300.513 66.6637C300.513 66.1369 300.471 65.6857 300.38 65.3542C300.3 65.0075 300.172 64.7456 299.989 64.5609C299.818 64.3656 299.594 64.2354 299.313 64.1643C299.041 64.0825 298.72 64.0447 298.347 64.0447C297.973 64.0447 297.627 64.0825 297.349 64.1643C297.077 64.2354 296.858 64.3656 296.686 64.5609C296.515 64.7456 296.387 65.012 296.296 65.3542C296.206 65.6857 296.161 66.1247 296.161 66.6637C296.161 67.2011 296.204 67.6311 296.296 67.9717C296.387 68.3032 296.515 68.5682 296.686 68.765C296.857 68.9603 297.076 69.0965 297.349 69.1767C297.632 69.2464 297.963 69.2797 298.347 69.2797ZM302.093 72.1409C301.87 72.1409 301.635 72.0819 301.399 71.9668C301.176 71.8639 300.929 71.6837 300.667 71.4355C300.545 71.3098 300.389 71.1357 300.209 70.9192C300.037 70.7133 299.845 70.4847 299.634 70.2289C299.43 69.9731 299.218 69.7248 298.987 69.4689C298.773 69.2025 298.561 68.9648 298.342 68.7468C298.128 68.5303 297.93 68.3456 297.749 68.1927C297.802 68.0186 297.893 67.899 298.021 67.8294C298.155 67.7476 298.293 67.7098 298.427 67.7098C298.619 67.7098 298.79 67.7431 298.934 67.8127C299.093 67.8718 299.286 67.9974 299.509 68.1927C299.744 68.388 299.985 68.6 300.22 68.8331C300.453 69.0602 300.69 69.2994 300.914 69.5386C301.148 69.7778 301.388 70.017 301.623 70.244C301.863 70.462 302.109 70.6679 302.37 70.8632C302.631 71.0691 302.909 71.2493 303.202 71.3961C303.08 71.6625 302.918 71.8518 302.726 71.9653C302.545 72.0804 302.331 72.1394 302.081 72.1394H302.092L302.093 72.1409ZM307.1 63.7419V68.2109C307.1 68.6227 307.197 68.9179 307.389 69.0905C307.592 69.2524 307.918 69.3296 308.355 69.3296C308.82 69.3296 309.145 69.2434 309.338 69.0693C309.53 68.8846 309.626 68.6015 309.626 68.223V63.7373H310.304C310.486 63.7267 310.651 63.7207 310.795 63.7207H311.083C311.345 63.7207 311.552 63.7373 311.708 63.7752C311.867 63.7964 311.98 63.8675 312.05 63.9811C312.118 64.0946 312.151 64.296 312.151 64.5836V67.9278C312.151 68.6181 312.05 69.1722 311.847 69.584C311.644 69.9852 311.265 70.2788 310.71 70.4635C310.154 70.6376 309.353 70.7239 308.302 70.7239C307.331 70.7239 306.573 70.6543 306.028 70.5181C305.484 70.3667 305.105 70.1063 304.891 69.7248C304.677 69.3448 304.57 68.8119 304.57 68.1231V64.5881C304.57 64.2566 304.623 64.0295 304.742 63.9145C304.854 63.7903 305.101 63.7252 305.472 63.7252C305.744 63.7252 306.017 63.7313 306.284 63.7419H307.094H307.1ZM317.097 70.7133C316.307 70.7133 315.665 70.6861 315.181 70.6271C314.694 70.5832 314.315 70.4863 314.042 70.3333C313.782 70.182 313.609 69.97 313.514 69.693C313.425 69.4159 313.382 69.0632 313.382 68.6227C313.382 68.0368 313.435 67.5917 313.553 67.2935C313.666 66.9831 313.862 66.7727 314.146 66.6531C314.43 66.538 314.807 66.479 315.283 66.479C315.567 66.479 315.885 66.485 316.249 66.4956C316.623 66.4956 316.985 66.5017 317.332 66.5123C317.695 66.5229 318.005 66.5441 318.265 66.5819C318.538 66.6047 318.725 66.6258 318.826 66.6531C318.826 66.2943 318.795 66.0127 318.725 65.8068C318.665 65.5994 318.57 65.442 318.436 65.339C318.303 65.2255 318.12 65.1483 317.891 65.1165C317.666 65.0832 317.39 65.062 317.06 65.062C316.664 65.062 316.27 65.068 315.875 65.0786C315.49 65.0892 315.112 65.1119 314.738 65.1483C314.375 65.1816 314.042 65.224 313.738 65.2679V64.7849C313.738 64.4761 313.808 64.2415 313.941 64.0946C314.08 63.9432 314.262 63.8448 314.501 63.8009C314.763 63.7419 315.148 63.7025 315.653 63.6813C316.172 63.6586 316.731 63.648 317.335 63.648C318.091 63.648 318.728 63.6859 319.235 63.7676C319.752 63.8494 320.162 63.9902 320.457 64.1961C320.75 64.4019 320.958 64.7123 321.087 65.1301C321.209 65.5313 321.273 66.0748 321.273 66.753V70.185C321.092 70.3591 320.638 70.4893 319.919 70.5816C319.208 70.6634 318.27 70.7012 317.107 70.7012L317.097 70.7118V70.7133ZM317.075 69.643C317.388 69.643 317.657 69.637 317.868 69.6264C318.093 69.6037 318.285 69.5719 318.447 69.5401C318.606 69.5083 318.729 69.4644 318.82 69.4205V67.4872C318.698 67.4539 318.521 67.4221 318.292 67.4009C318.078 67.3782 317.854 67.3631 317.629 67.3464C317.406 67.3359 317.229 67.3298 317.107 67.3298C316.835 67.3298 316.617 67.3525 316.444 67.4009C316.273 67.4448 316.151 67.5523 316.071 67.7098C316.001 67.8718 315.971 68.117 315.971 68.4531C315.971 68.7408 315.997 68.9739 316.056 69.1586C316.116 69.3327 316.221 69.4583 316.376 69.5386C316.536 69.6097 316.767 69.6415 317.072 69.6415H317.076L317.075 69.643ZM324.846 70.6921C324.056 70.6921 323.484 70.5619 323.131 70.2955C322.779 70.0185 322.61 69.5355 322.61 68.8467V62.8411C322.61 62.5853 322.632 62.39 322.679 62.2552C322.727 62.119 322.818 62.0266 322.95 61.9782C323.084 61.9343 323.282 61.9086 323.543 61.9086H325.186C325.176 61.9403 325.159 62.0705 325.138 62.2885C325.128 62.505 325.122 62.7503 325.122 63.0107V68.5485C325.122 68.9603 325.17 69.2539 325.277 69.428C325.378 69.59 325.57 69.6672 325.852 69.6672C325.955 69.6672 326.06 69.6566 326.173 69.6339C326.295 69.6127 326.369 69.5961 326.392 69.5794V70.5302C326.311 70.5408 326.167 70.568 325.949 70.6164C325.735 70.6603 325.366 70.6861 324.844 70.6861V70.6921H324.846ZM329.211 70.6921C328.452 70.6921 327.93 70.5392 327.632 70.241C327.337 69.9428 327.193 69.4538 327.193 68.7756L327.208 63.7373H329.738V68.6726C329.738 69.0314 329.786 69.2873 329.893 69.4492C330.004 69.6006 330.186 69.6718 330.437 69.6718C330.587 69.6718 330.709 69.6612 330.812 69.6385C330.913 69.6173 330.977 69.6006 330.998 69.584V70.5347C330.95 70.5453 330.871 70.562 330.742 70.5892C330.62 70.6119 330.437 70.6331 330.196 70.6604C329.957 70.6815 329.631 70.6937 329.214 70.6937H329.209L329.211 70.6921ZM328.495 62.9168C328.1 62.9168 327.818 62.8623 327.647 62.7594C327.476 62.6564 327.391 62.4657 327.391 62.1886C327.391 61.9116 327.476 61.7224 327.647 61.6194C327.828 61.5059 328.122 61.4453 328.528 61.4453C328.912 61.4559 329.184 61.5165 329.337 61.6194C329.509 61.7224 329.588 61.9131 329.579 62.1886C329.579 62.4657 329.499 62.6564 329.337 62.7594C329.193 62.8623 328.912 62.9168 328.489 62.9168H328.494H328.495ZM334.575 70.6921C333.966 70.6921 333.486 70.627 333.134 70.5014C332.792 70.3667 332.559 70.1426 332.423 69.8444C332.289 69.5355 332.22 69.1056 332.22 68.5682V65.0832H331.488V63.7373H332.22V62.8578C332.22 62.5701 332.236 62.3582 332.267 62.2174C332.315 62.0811 332.397 61.9949 332.524 61.957C332.646 61.9237 332.846 61.9025 333.116 61.9025H334.746V63.7328H336.388V65.0786H334.76V68.3577C334.76 68.8195 334.798 69.151 334.878 69.3569C334.969 69.5628 335.197 69.6657 335.572 69.6657C335.673 69.6657 335.801 69.6551 335.962 69.6324C336.133 69.6112 336.25 69.5885 336.32 69.5628V70.5135C336.24 70.5241 336.042 70.5574 335.728 70.6164C335.423 70.6603 335.04 70.6861 334.575 70.6861V70.6921ZM341.002 72.5376C340.356 72.5376 339.759 72.5103 339.203 72.4513C338.648 72.3922 338.199 72.2938 337.863 72.1576C337.532 72.0335 337.373 71.8639 337.373 71.658V70.9147C337.554 71.0176 337.805 71.1054 338.137 71.1751C338.462 71.2447 338.815 71.2947 339.188 71.3325C339.561 71.3764 339.909 71.4037 340.223 71.4037C340.768 71.4037 341.189 71.3386 341.494 71.2129C341.797 71.0994 342.011 70.9086 342.139 70.6437C342.273 70.3773 342.343 70.0412 342.343 69.6279V68.9542C342.219 69.1828 342.048 69.3675 341.834 69.5083C341.63 69.6324 341.364 69.7248 341.04 69.7853C340.724 69.8292 340.319 69.855 339.835 69.855C339.097 69.855 338.553 69.7414 338.19 69.5083C337.827 69.2691 337.593 68.933 337.481 68.5091C337.38 68.0852 337.326 67.5917 337.326 67.027V64.6487C337.326 64.4746 337.337 64.3232 337.359 64.1824C337.39 64.0462 337.471 63.9432 337.593 63.8721C337.716 63.7903 337.914 63.7525 338.186 63.7525H339.898V66.5274C339.898 67.1845 339.936 67.6629 340.016 67.9611C340.107 68.2593 340.24 68.4501 340.422 68.5318C340.603 68.6136 340.828 68.6514 341.1 68.6514C341.37 68.6514 341.607 68.6075 341.776 68.5152C341.949 68.4228 342.071 68.2336 342.151 67.9459C342.24 67.6583 342.289 67.2178 342.289 66.6152V63.754H344.049C344.321 63.754 344.525 63.7979 344.657 63.8902C344.807 63.972 344.877 64.1718 344.877 64.4928V69.478C344.877 70.515 344.579 71.281 343.981 71.7912C343.383 72.2969 342.384 72.5512 340.997 72.5512L341.003 72.5406L341.002 72.5376Z" fill="#0059E6"></path><path d="M11.9986 13.6872C13.7577 13.6872 15.1847 12.261 15.1847 10.5037C15.1847 8.74644 13.7577 7.32031 11.9986 7.32031C10.2395 7.32031 8.8125 8.74644 8.8125 10.5037C8.8125 12.261 10.2395 13.6872 11.9986 13.6872Z" fill="#0059E6"></path><path d="M28.9965 9.5126C31.6253 9.5126 33.7586 7.38193 33.7586 4.75495C33.7586 2.12797 31.6253 0 28.9965 0C26.3668 0 24.2344 2.13067 24.2344 4.75765C24.2344 7.38373 26.3668 9.5153 28.9965 9.5153V9.5117V9.5126Z" fill="#0059E6"></path><path fill-rule="evenodd" clip-rule="evenodd" d="M53.7414 31.8547C52.3009 32.7046 50.6226 33.1938 48.8285 33.1938C43.4964 33.1938 39.1723 28.8741 39.1723 23.5474C39.1723 21.8153 39.6291 20.1899 40.4288 18.7862C36.7589 17.054 32.6609 16.082 28.3305 16.082C12.6844 16.082 0 28.7547 0 44.3892C0 60.0236 12.6844 72.6963 28.3332 72.6963C43.982 72.6963 56.6663 60.0236 56.6663 44.3892C56.6663 39.8891 55.6163 35.6332 53.7441 31.8547H53.7405H53.7414ZM15.1848 44.3892C15.1848 37.1338 21.0715 31.2525 28.3332 31.2525C35.5948 31.2525 41.4815 37.1338 41.4815 44.3892C41.4815 51.6446 35.5948 57.525 28.3332 57.525C21.0706 57.525 15.1848 51.6446 15.1848 44.3892Z" fill="#0059E6"></path><path d="M48.8301 31.4681C53.2072 31.4681 56.7559 27.923 56.7559 23.5495C56.7559 19.176 53.2072 15.6309 48.8301 15.6309C44.453 15.6309 40.9043 19.176 40.9043 23.5495C40.9043 27.9221 44.453 31.4681 48.8301 31.4681Z" fill="#0059E6"></path></svg>